<svg width="90" height="91" viewBox="0 0 90 91" fill="none" xmlns="http://www.w3.org/2000/svg">
<path d="M45 45.5C40.875 45.5 37.3438 44.015 34.4062 41.0448C31.4688 38.0747 30 34.5042 30 30.3334C30 26.1625 31.4688 22.592 34.4062 19.6219C37.3438 16.6518 40.875 15.1667 45 15.1667C49.125 15.1667 52.6562 16.6518 55.5938 19.6219C58.5312 22.592 60 26.1625 60 30.3334C60 34.5042 58.5312 38.0747 55.5938 41.0448C52.6562 44.015 49.125 45.5 45 45.5ZM15 75.8334V65.2167C15 63.0681 15.5469 61.0933 16.6406 59.2922C17.7344 57.4912 19.1875 56.1167 21 55.1688C24.875 53.2097 28.8125 51.7405 32.8125 50.761C36.8125 49.7814 40.875 49.2917 45 49.2917C49.125 49.2917 53.1875 49.7814 57.1875 50.761C61.1875 51.7405 65.125 53.2097 69 55.1688C70.8125 56.1167 72.2656 57.4912 73.3594 59.2922C74.4531 61.0933 75 63.0681 75 65.2167V75.8334H15ZM22.5 68.25H67.5V65.2167C67.5 64.5215 67.3281 63.8896 66.9844 63.3209C66.6406 62.7521 66.1875 62.3097 65.625 61.9938C62.25 60.2875 58.8438 59.0078 55.4063 58.1547C51.9688 57.3016 48.5 56.875 45 56.875C41.5 56.875 38.0312 57.3016 34.5938 58.1547C31.1562 59.0078 27.75 60.2875 24.375 61.9938C23.8125 62.3097 23.3594 62.7521 23.0156 63.3209C22.6719 63.8896 22.5 64.5215 22.5 65.2167V68.25ZM45 37.9167C47.0625 37.9167 48.8281 37.1742 50.2969 35.6891C51.7656 34.204 52.5 32.4188 52.5 30.3334C52.5 28.2479 51.7656 26.4627 50.2969 24.9776C48.8281 23.4926 47.0625 22.75 45 22.75C42.9375 22.75 41.1719 23.4926 39.7031 24.9776C38.2344 26.4627 37.5 28.2479 37.5 30.3334C37.5 32.4188 38.2344 34.204 39.7031 35.6891C41.1719 37.1742 42.9375 37.9167 45 37.9167Z" fill="#1D1B20"/>
</svg>
