<svg width="767" height="767" viewBox="0 0 767 767" fill="none" xmlns="http://www.w3.org/2000/svg">
<g opacity="0.14" clip-path="url(#clip0_13_603)">
<path d="M43.6631 614.87L43.3914 390.259L268.011 389.988L268.274 614.599L43.6631 614.87ZM52.7552 399.599L53.0029 605.507L258.918 605.267L258.671 399.351L52.7552 399.599Z" fill="#D9D9D9"/>
<path d="M151.427 722.378L151.155 497.759L375.774 497.495L376.038 722.107L151.427 722.378ZM160.519 507.099L160.766 713.014L366.682 712.767L366.434 506.851L160.519 507.099Z" fill="#D9D9D9"/>
<path d="M220.489 674.409L306.896 674.305L307 760.712L220.592 760.816L220.489 674.409Z" fill="#D9D9D9"/>
<path d="M327.988 566.645L414.396 566.541L414.5 652.949L328.092 653.053L327.988 566.645Z" fill="#D9D9D9"/>
<mask id="mask0_13_603" style="mask-type:luminance" maskUnits="userSpaceOnUse" x="323" y="668" width="97" height="98">
<path d="M323.163 668.824H419.293V765.466H323.163V668.824Z" fill="white"/>
</mask>
<g mask="url(#mask0_13_603)">
<path d="M323.538 765.37L323.426 669.615L419.181 669.503L419.293 765.258L323.538 765.37ZM332.79 678.955L332.878 756.014L409.938 755.918L409.842 678.859L332.79 678.955Z" fill="#D9D9D9"/>
</g>
<path d="M5.04941 545.8L4.94554 459.401L91.3529 459.289L91.4568 545.697L5.04941 545.8Z" fill="#D9D9D9"/>
<path d="M112.549 438.037L112.445 351.63L198.853 351.526L198.957 437.933L112.549 438.037Z" fill="#D9D9D9"/>
<path d="M0.255657 442.863L96.0108 442.751L95.899 346.996L0.143803 347.107L0.255657 442.863ZM86.647 433.403L9.59548 433.499L9.4996 356.439L86.5591 356.351L86.647 433.403Z" fill="#D9D9D9"/>
<path d="M44.6298 635.164L131.037 635.06L131.141 721.467L44.7417 721.571L44.6298 635.164Z" fill="#D9D9D9"/>
<path d="M288.32 390.882L374.719 390.779L374.831 477.186L288.424 477.29L288.32 390.882Z" fill="#D9D9D9"/>
<path d="M68.6225 659.101L107.108 659.053L107.156 697.531L68.6705 697.579L68.6225 659.101Z" fill="white"/>
<path d="M312.305 414.819L350.791 414.771L350.839 453.257L312.353 453.305L312.305 414.819Z" fill="white"/>
<path d="M337.256 159.975L337.24 150.628L327.9 150.636L327.908 159.991L328.028 258.271L229.74 258.391L220.393 258.399L122.105 258.519L122.041 198.765L121.937 112.358L121.921 95.8031L121.905 86.4473L121.865 52.5954L155.717 52.5555L165.065 52.5475L165.057 43.1997L155.701 43.2077L112.501 43.2636L112.549 86.4633L112.565 95.8111L112.589 112.365L112.685 198.765L112.773 267.875L220.409 267.747L229.756 267.731L337.392 267.603L337.256 159.975Z" fill="#D9D9D9"/>
<path d="M376.03 365.843L289.63 365.947L229.876 366.019L229.756 267.731L229.748 258.383L229.629 160.103L327.916 159.983L337.256 159.975L337.248 150.628L327.901 150.636L220.273 150.763L220.401 258.399L220.409 267.747L220.536 375.383L289.638 375.303L376.046 375.191L376.038 365.851L376.03 365.843Z" fill="#D9D9D9"/>
<path d="M165.065 52.5395L165.057 43.1917L165.001 -0.00799561L69.2457 0.103858L69.3576 95.859L112.565 95.8111L121.921 95.7951L165.113 95.7472L165.065 52.5395ZM121.905 86.4473L112.549 86.4633L78.6974 86.5032L78.6095 9.44368L155.661 9.3558L155.701 43.2077L155.717 52.5555L155.757 86.4073L121.905 86.4473Z" fill="#D9D9D9"/>
<path d="M606.881 428.769L616.229 428.785L616.213 438.133L606.865 438.117L508.577 438.005L508.465 536.285L508.457 545.633L508.337 643.921L568.091 643.984L654.499 644.088L671.053 644.104L680.401 644.12L714.253 644.16L714.293 610.308L714.309 600.961L723.657 600.969L723.641 610.324L723.593 653.524L680.393 653.476L671.045 653.46L654.491 653.444L568.083 653.34L498.974 653.252L499.109 545.625L499.117 536.269L499.245 428.641L606.881 428.769Z" fill="#D9D9D9"/>
<path d="M401.013 389.996L400.909 476.395L400.837 536.157L499.117 536.269L508.465 536.285L606.753 536.397L606.865 438.117L606.881 428.769L616.229 428.785L616.213 438.125L616.085 545.76L508.457 545.633L499.101 545.617L391.474 545.489L391.554 476.387L391.657 389.988L401.005 389.996H401.013Z" fill="#D9D9D9"/>
<path d="M714.309 600.968L723.657 600.976L766.864 601.024L766.744 696.78L670.989 696.668L671.045 653.46L671.053 644.112L671.109 600.913L714.309 600.968ZM680.401 644.12L680.393 653.476L680.353 687.328L757.405 687.416L757.5 610.364L723.641 610.324L714.301 610.308L680.449 610.268L680.409 644.12H680.401Z" fill="#D9D9D9"/>
</g>
<defs>
<clipPath id="clip0_13_603">
<rect width="767" height="767" fill="white"/>
</clipPath>
</defs>
</svg>
