<svg xmlns="http://www.w3.org/2000/svg" xmlns:xlink="http://www.w3.org/1999/xlink" width="500" zoomAndPan="magnify" viewBox="0 0 375 374.999991" height="500" preserveAspectRatio="xMidYMid meet" version="1.0"><defs><clipPath id="809f8aa72b"><path d="M 49 1 L 326 1 L 326 374.808594 L 49 374.808594 Z M 49 1 " clip-rule="nonzero"/></clipPath></defs><g clip-path="url(#809f8aa72b)"><path fill="#cfcfcf" d="M 66.421875 207.148438 L 66.804688 207.726562 L 182.609375 372.359375 C 182.910156 372.746094 183.25 373.097656 183.632812 373.40625 C 184.011719 373.714844 184.421875 373.976562 184.863281 374.191406 C 185.304688 374.410156 185.761719 374.570312 186.238281 374.683594 C 186.71875 374.792969 187.203125 374.847656 187.691406 374.847656 C 188.183594 374.847656 188.667969 374.792969 189.144531 374.683594 C 189.621094 374.570312 190.082031 374.410156 190.523438 374.191406 C 190.960938 373.976562 191.371094 373.714844 191.753906 373.40625 C 192.132812 373.097656 192.472656 372.746094 192.773438 372.359375 L 308.191406 207.726562 L 308.578125 207.148438 C 310.023438 204.527344 311.382812 201.867188 312.65625 199.160156 C 313.929688 196.453125 315.117188 193.707031 316.210938 190.921875 C 317.308594 188.140625 318.3125 185.324219 319.222656 182.476562 C 320.136719 179.625 320.957031 176.75 321.683594 173.847656 C 322.40625 170.945312 323.039062 168.023438 323.574219 165.082031 C 324.113281 162.140625 324.554688 159.179688 324.898438 156.210938 C 325.242188 153.238281 325.492188 150.257812 325.640625 147.273438 C 325.792969 144.285156 325.847656 141.292969 325.804688 138.304688 C 325.761719 135.3125 325.625 132.324219 325.386719 129.34375 C 325.152344 126.363281 324.820312 123.390625 324.390625 120.429688 C 323.960938 117.46875 323.4375 114.527344 322.816406 111.597656 C 322.195312 108.671875 321.480469 105.769531 320.671875 102.890625 C 319.863281 100.007812 318.964844 97.160156 317.96875 94.335938 C 316.976562 91.515625 315.894531 88.730469 314.71875 85.976562 C 313.542969 83.226562 312.28125 80.515625 310.933594 77.847656 C 309.582031 75.175781 308.148438 72.554688 306.628906 69.976562 C 305.105469 67.402344 303.503906 64.875 301.820312 62.40625 C 300.136719 59.933594 298.375 57.515625 296.535156 55.160156 C 294.691406 52.800781 292.777344 50.503906 290.789062 48.269531 C 288.796875 46.035156 286.738281 43.871094 284.609375 41.769531 C 282.476562 39.667969 280.28125 37.640625 278.019531 35.683594 C 275.757812 33.726562 273.4375 31.84375 271.050781 30.035156 C 268.667969 28.230469 266.226562 26.5 263.730469 24.851562 C 261.234375 23.203125 258.6875 21.636719 256.089844 20.15625 C 253.492188 18.671875 250.851562 17.273438 248.160156 15.960938 C 245.472656 14.648438 242.746094 13.425781 239.976562 12.292969 C 237.210938 11.15625 234.40625 10.113281 231.574219 9.160156 C 228.738281 8.207031 225.875 7.347656 222.980469 6.578125 C 220.089844 5.8125 217.179688 5.136719 214.242188 4.558594 C 211.308594 3.980469 208.355469 3.5 205.390625 3.113281 C 202.425781 2.726562 199.449219 2.433594 196.464844 2.242188 C 193.480469 2.046875 190.492188 1.949219 187.5 1.949219 C 184.507812 1.949219 181.519531 2.046875 178.535156 2.242188 C 175.550781 2.433594 172.574219 2.726562 169.605469 3.113281 C 166.640625 3.5 163.691406 3.980469 160.753906 4.558594 C 157.820312 5.136719 154.90625 5.8125 152.015625 6.578125 C 149.125 7.347656 146.261719 8.207031 143.425781 9.160156 C 140.589844 10.113281 137.789062 11.15625 135.019531 12.292969 C 132.253906 13.425781 129.523438 14.648438 126.835938 15.960938 C 124.148438 17.273438 121.503906 18.671875 118.90625 20.15625 C 116.308594 21.636719 113.761719 23.203125 111.265625 24.851562 C 108.769531 26.5 106.332031 28.230469 103.945312 30.035156 C 101.5625 31.84375 99.238281 33.726562 96.976562 35.683594 C 94.714844 37.640625 92.519531 39.667969 90.390625 41.769531 C 88.257812 43.871094 86.199219 46.035156 84.210938 48.269531 C 82.21875 50.503906 80.304688 52.800781 78.464844 55.160156 C 76.625 57.515625 74.859375 59.933594 73.175781 62.40625 C 71.492188 64.875 69.890625 67.402344 68.371094 69.976562 C 66.851562 72.554688 65.414062 75.175781 64.066406 77.847656 C 62.714844 80.515625 61.453125 83.226562 60.277344 85.976562 C 59.105469 88.730469 58.019531 91.515625 57.027344 94.335938 C 56.035156 97.160156 55.132812 100.007812 54.324219 102.890625 C 53.515625 105.769531 52.800781 108.671875 52.183594 111.597656 C 51.5625 114.527344 51.039062 117.46875 50.609375 120.429688 C 50.179688 123.390625 49.847656 126.363281 49.609375 129.34375 C 49.375 132.324219 49.234375 135.3125 49.191406 138.304688 C 49.148438 141.292969 49.203125 144.285156 49.355469 147.273438 C 49.507812 150.257812 49.753906 153.238281 50.101562 156.210938 C 50.445312 159.179688 50.886719 162.140625 51.421875 165.082031 C 51.957031 168.023438 52.589844 170.945312 53.316406 173.847656 C 54.042969 176.75 54.863281 179.625 55.773438 182.476562 C 56.6875 185.324219 57.691406 188.140625 58.785156 190.921875 C 59.882812 193.707031 61.066406 196.453125 62.339844 199.160156 C 63.613281 201.867188 64.972656 204.527344 66.421875 207.148438 Z M 187.5 82.464844 C 189.394531 82.464844 191.289062 82.558594 193.175781 82.746094 C 195.0625 82.929688 196.933594 83.207031 198.796875 83.578125 C 200.65625 83.949219 202.492188 84.410156 204.308594 84.957031 C 206.121094 85.507812 207.90625 86.148438 209.65625 86.875 C 211.410156 87.597656 213.121094 88.410156 214.792969 89.300781 C 216.464844 90.195312 218.089844 91.171875 219.667969 92.222656 C 221.246094 93.277344 222.765625 94.40625 224.230469 95.609375 C 225.699219 96.8125 227.101562 98.082031 228.441406 99.425781 C 229.78125 100.765625 231.054688 102.167969 232.257812 103.636719 C 233.460938 105.101562 234.589844 106.621094 235.640625 108.199219 C 236.695312 109.777344 237.667969 111.398438 238.5625 113.074219 C 239.457031 114.746094 240.265625 116.457031 240.992188 118.210938 C 241.71875 119.960938 242.355469 121.746094 242.90625 123.558594 C 243.457031 125.375 243.917969 127.210938 244.289062 129.070312 C 244.65625 130.929688 244.9375 132.804688 245.121094 134.691406 C 245.308594 136.578125 245.402344 138.472656 245.402344 140.367188 C 245.402344 142.261719 245.308594 144.15625 245.121094 146.042969 C 244.9375 147.929688 244.65625 149.804688 244.289062 151.664062 C 243.917969 153.523438 243.457031 155.359375 242.90625 157.175781 C 242.355469 158.988281 241.71875 160.773438 240.992188 162.523438 C 240.265625 164.277344 239.457031 165.988281 238.5625 167.660156 C 237.667969 169.335938 236.695312 170.957031 235.640625 172.535156 C 234.589844 174.113281 233.460938 175.632812 232.257812 177.101562 C 231.054688 178.566406 229.78125 179.96875 228.441406 181.308594 C 227.101562 182.652344 225.699219 183.921875 224.230469 185.125 C 222.765625 186.328125 221.246094 187.457031 219.667969 188.511719 C 218.089844 189.5625 216.464844 190.539062 214.792969 191.433594 C 213.121094 192.324219 211.410156 193.136719 209.65625 193.863281 C 207.90625 194.585938 206.121094 195.226562 204.308594 195.777344 C 202.492188 196.324219 200.65625 196.785156 198.796875 197.15625 C 196.933594 197.527344 195.0625 197.804688 193.175781 197.988281 C 191.289062 198.175781 189.394531 198.269531 187.5 198.269531 C 185.601562 198.269531 183.710938 198.175781 181.824219 197.988281 C 179.9375 197.804688 178.0625 197.527344 176.203125 197.15625 C 174.34375 196.785156 172.503906 196.324219 170.691406 195.777344 C 168.875 195.226562 167.09375 194.585938 165.339844 193.863281 C 163.589844 193.136719 161.875 192.324219 160.203125 191.433594 C 158.53125 190.539062 156.90625 189.5625 155.332031 188.511719 C 153.753906 187.457031 152.234375 186.328125 150.765625 185.125 C 149.300781 183.921875 147.898438 182.652344 146.554688 181.308594 C 145.214844 179.96875 143.945312 178.566406 142.742188 177.101562 C 141.539062 175.632812 140.410156 174.113281 139.355469 172.535156 C 138.300781 170.957031 137.328125 169.335938 136.433594 167.660156 C 135.539062 165.988281 134.730469 164.277344 134.003906 162.523438 C 133.277344 160.773438 132.640625 158.988281 132.089844 157.175781 C 131.539062 155.359375 131.078125 153.523438 130.710938 151.664062 C 130.339844 149.804688 130.0625 147.929688 129.875 146.042969 C 129.691406 144.15625 129.597656 142.261719 129.597656 140.367188 C 129.597656 138.472656 129.691406 136.578125 129.875 134.691406 C 130.0625 132.804688 130.339844 130.929688 130.710938 129.070312 C 131.078125 127.210938 131.539062 125.375 132.089844 123.558594 C 132.640625 121.746094 133.277344 119.960938 134.003906 118.210938 C 134.730469 116.457031 135.539062 114.746094 136.433594 113.074219 C 137.328125 111.398438 138.300781 109.777344 139.355469 108.199219 C 140.410156 106.621094 141.539062 105.101562 142.742188 103.636719 C 143.945312 102.167969 145.214844 100.765625 146.554688 99.425781 C 147.898438 98.082031 149.300781 96.8125 150.765625 95.609375 C 152.234375 94.40625 153.753906 93.277344 155.332031 92.222656 C 156.90625 91.171875 158.53125 90.195312 160.203125 89.300781 C 161.875 88.410156 163.589844 87.597656 165.339844 86.875 C 167.09375 86.148438 168.875 85.507812 170.691406 84.957031 C 172.503906 84.410156 174.34375 83.949219 176.203125 83.578125 C 178.0625 83.207031 179.9375 82.929688 181.824219 82.746094 C 183.710938 82.558594 185.601562 82.464844 187.5 82.464844 Z M 187.5 82.464844 " fill-opacity="1" fill-rule="nonzero"/></g></svg>