<svg xmlns="http://www.w3.org/2000/svg" xmlns:xlink="http://www.w3.org/1999/xlink" width="500" zoomAndPan="magnify" viewBox="0 0 375 374.999991" height="500" preserveAspectRatio="xMidYMid meet" version="1.0"><defs><clipPath id="358996e3e3"><path d="M 0 70.3125 L 148 70.3125 L 148 275 L 0 275 Z M 0 70.3125 " clip-rule="nonzero"/></clipPath><clipPath id="0b9f8f65f0"><path d="M 227 70.3125 L 375 70.3125 L 375 275 L 227 275 Z M 227 70.3125 " clip-rule="nonzero"/></clipPath><clipPath id="d625383645"><path d="M 38 70.3125 L 338 70.3125 L 338 305 L 38 305 Z M 38 70.3125 " clip-rule="nonzero"/></clipPath></defs><g clip-path="url(#358996e3e3)"><path fill="#ff4030" d="M 38.039062 274.554688 L 56.625 274.554688 L 56.625 166.355469 L 43.507812 166.355469 L 121.90625 95.019531 L 133.117188 105.542969 L 147.355469 92.597656 L 121.90625 70.335938 L 0 176.878906 L 38.039062 176.878906 Z M 38.039062 274.554688 " fill-opacity="1" fill-rule="nonzero"/></g><g clip-path="url(#0b9f8f65f0)"><path fill="#191629" d="M 253.09375 70.335938 L 227.644531 92.597656 L 241.882812 105.542969 L 253.09375 95.019531 L 331.492188 166.355469 L 318.375 166.355469 L 318.375 274.554688 L 336.960938 274.554688 L 336.960938 176.878906 L 375 176.878906 Z M 253.09375 70.335938 " fill-opacity="1" fill-rule="nonzero"/></g><path fill="#191629" d="M 330.707031 141.515625 L 310.644531 130.402344 L 310.644531 102.828125 L 330.707031 102.828125 Z M 330.707031 141.515625 " fill-opacity="1" fill-rule="nonzero"/><path fill="#191629" d="M 305.984375 98.183594 L 335.347656 98.183594 L 335.347656 104.636719 L 305.984375 104.636719 Z M 305.984375 98.183594 " fill-opacity="1" fill-rule="nonzero"/><path fill="#ff4030" d="M 43.210938 141.515625 L 63.253906 130.402344 L 63.253906 102.828125 L 43.210938 102.828125 Z M 43.210938 141.515625 " fill-opacity="1" fill-rule="nonzero"/><path fill="#ff4030" d="M 67.914062 104.621094 L 38.550781 104.621094 L 38.550781 98.167969 L 67.914062 98.167969 Z M 67.914062 104.621094 " fill-opacity="1" fill-rule="nonzero"/><path fill="#ff4030" d="M 185.296875 162.246094 C 185.75 155.851562 186.398438 149.480469 187.285156 143.148438 C 179.769531 143.1875 172.589844 144.679688 166.042969 147.375 C 169.285156 152.902344 172.316406 158.546875 175.1875 164.269531 C 178.375 163.148438 181.757812 162.441406 185.296875 162.246094 Z M 185.296875 162.246094 " fill-opacity="1" fill-rule="nonzero"/><path fill="#ff4030" d="M 162.5 171.707031 C 165.058594 169.425781 167.949219 167.476562 171.058594 165.964844 C 169.03125 159.886719 167.183594 153.75 165.570312 147.554688 C 158.804688 150.40625 152.707031 154.515625 147.574219 159.628906 C 152.6875 163.503906 157.644531 167.535156 162.5 171.707031 Z M 162.5 171.707031 " fill-opacity="1" fill-rule="nonzero"/><path fill="#ff4030" d="M 153.652344 183.449219 C 155.164062 180.320312 157.09375 177.449219 159.355469 174.871094 C 155.183594 170.015625 151.132812 165.039062 147.257812 159.945312 C 142.183594 165.078125 138.074219 171.175781 135.242188 177.941406 C 141.4375 179.574219 147.574219 181.421875 153.652344 183.449219 Z M 153.652344 183.449219 " fill-opacity="1" fill-rule="nonzero"/><path fill="#ff4030" d="M 149.992188 197.648438 C 150.1875 194.128906 150.859375 190.746094 151.957031 187.558594 C 146.234375 184.6875 140.589844 181.660156 135.0625 178.414062 C 132.390625 184.960938 130.914062 192.121094 130.894531 199.636719 C 137.226562 198.789062 143.601562 198.140625 149.992188 197.648438 Z M 149.992188 197.648438 " fill-opacity="1" fill-rule="nonzero"/><path fill="#191629" d="M 189.742188 162.246094 C 193.28125 162.441406 196.683594 163.148438 199.871094 164.25 C 202.742188 158.527344 205.773438 152.882812 209.015625 147.355469 C 202.46875 144.660156 195.289062 143.167969 187.753906 143.128906 C 188.640625 149.480469 189.269531 155.851562 189.742188 162.246094 Z M 189.742188 162.246094 " fill-opacity="1" fill-rule="nonzero"/><path fill="#191629" d="M 215.683594 174.871094 C 217.964844 177.449219 219.894531 180.320312 221.410156 183.449219 C 227.484375 181.421875 233.621094 179.574219 239.816406 177.960938 C 236.984375 171.195312 232.894531 165.097656 227.820312 159.964844 C 223.925781 165.078125 219.875 170.035156 215.683594 174.871094 Z M 215.683594 174.871094 " fill-opacity="1" fill-rule="nonzero"/><path fill="#191629" d="M 225.027344 202.113281 C 224.8125 205.613281 224.121094 208.976562 223 212.164062 C 228.707031 215.054688 234.351562 218.085938 239.878906 221.308594 C 242.570312 214.78125 244.066406 207.640625 244.125 200.148438 C 237.792969 201.03125 231.417969 201.660156 225.027344 202.113281 Z M 225.027344 202.113281 " fill-opacity="1" fill-rule="nonzero"/><path fill="#191629" d="M 244.144531 199.636719 C 244.125 192.140625 242.652344 184.980469 239.976562 178.433594 C 234.449219 181.679688 228.804688 184.707031 223.082031 187.578125 C 224.183594 190.765625 224.851562 194.148438 225.046875 197.667969 C 231.441406 198.121094 237.8125 198.75 244.144531 199.636719 Z M 244.144531 199.636719 " fill-opacity="1" fill-rule="nonzero"/><path fill="#191629" d="M 203.980469 165.964844 C 207.109375 167.476562 209.980469 169.425781 212.558594 171.726562 C 217.394531 167.535156 222.351562 163.484375 227.464844 159.609375 C 222.332031 154.515625 216.253906 150.386719 209.488281 147.554688 C 207.855469 153.75 205.988281 159.886719 203.980469 165.964844 Z M 203.980469 165.964844 " fill-opacity="1" fill-rule="nonzero"/><path fill="#191629" d="M 212.421875 227.9375 C 209.863281 230.199219 207.011719 232.109375 203.921875 233.601562 C 205.929688 239.679688 207.757812 245.816406 209.390625 252.011719 C 216.117188 249.199219 222.195312 245.109375 227.308594 240.054688 C 222.195312 236.199219 217.257812 232.128906 212.421875 227.9375 Z M 212.421875 227.9375 " fill-opacity="1" fill-rule="nonzero"/><path fill="#191629" d="M 221.289062 216.3125 C 219.777344 219.402344 217.847656 222.253906 215.585938 224.792969 C 219.777344 229.628906 223.847656 234.585938 227.703125 239.679688 C 232.777344 234.566406 236.886719 228.507812 239.71875 221.78125 C 233.503906 220.148438 227.367188 218.300781 221.289062 216.3125 Z M 221.289062 216.3125 " fill-opacity="1" fill-rule="nonzero"/><path fill="#191629" d="M 199.753906 235.332031 C 196.585938 236.414062 193.242188 237.105469 189.761719 237.300781 C 189.269531 243.691406 188.621094 250.046875 187.773438 256.398438 C 195.25 256.359375 202.371094 254.882812 208.898438 252.210938 C 205.695312 246.683594 202.644531 241.039062 199.753906 235.332031 Z M 199.753906 235.332031 " fill-opacity="1" fill-rule="nonzero"/><path fill="#ff4030" d="M 152.019531 212.164062 C 150.917969 208.996094 150.207031 205.632812 149.992188 202.132812 C 143.601562 201.640625 137.226562 200.992188 130.894531 200.148438 C 130.933594 207.640625 132.449219 214.78125 135.140625 221.308594 C 140.667969 218.085938 146.292969 215.054688 152.019531 212.164062 Z M 152.019531 212.164062 " fill-opacity="1" fill-rule="nonzero"/><path fill="#ff4030" d="M 159.453125 224.773438 C 157.191406 222.234375 155.261719 219.382812 153.75 216.292969 C 147.671875 218.300781 141.515625 220.128906 135.320312 221.761719 C 138.171875 228.488281 142.261719 234.566406 147.335938 239.679688 C 151.230469 234.605469 155.28125 229.628906 159.453125 224.773438 Z M 159.453125 224.773438 " fill-opacity="1" fill-rule="nonzero"/><path fill="#ff4030" d="M 185.277344 237.300781 C 181.796875 237.105469 178.433594 236.414062 175.285156 235.332031 C 172.394531 241.058594 169.367188 246.683594 166.140625 252.230469 C 172.671875 254.882812 179.789062 256.378906 187.265625 256.417969 C 186.398438 250.046875 185.75 243.671875 185.277344 237.300781 Z M 185.277344 237.300781 " fill-opacity="1" fill-rule="nonzero"/><path fill="#ff4030" d="M 171.117188 233.601562 C 168.027344 232.109375 165.175781 230.199219 162.640625 227.9375 C 157.78125 232.109375 152.824219 236.160156 147.730469 240.054688 C 152.84375 245.109375 158.921875 249.199219 165.648438 252.011719 C 167.28125 245.835938 169.109375 239.699219 171.117188 233.601562 Z M 171.117188 233.601562 " fill-opacity="1" fill-rule="nonzero"/><path fill="#262626" d="M 165.726562 177.527344 L 186.457031 177.527344 L 186.457031 198.257812 L 165.726562 198.257812 Z M 165.726562 177.527344 " fill-opacity="1" fill-rule="nonzero"/><path fill="#262626" d="M 189.898438 177.527344 L 210.628906 177.527344 L 210.628906 198.257812 L 189.898438 198.257812 Z M 189.898438 177.527344 " fill-opacity="1" fill-rule="nonzero"/><path fill="#262626" d="M 165.726562 202.09375 L 186.457031 202.09375 L 186.457031 222.824219 L 165.726562 222.824219 Z M 165.726562 202.09375 " fill-opacity="1" fill-rule="nonzero"/><path fill="#262626" d="M 189.898438 202.09375 L 210.628906 202.09375 L 210.628906 222.824219 L 189.898438 222.824219 Z M 189.898438 202.09375 " fill-opacity="1" fill-rule="nonzero"/><g clip-path="url(#d625383645)"><path fill="#262626" d="M 271.367188 285.566406 L 271.367188 176.878906 L 309.40625 176.878906 L 187.519531 70.335938 L 65.613281 176.878906 L 103.652344 176.878906 L 103.652344 285.546875 L 38.15625 285.546875 L 38.15625 304.664062 L 123.222656 304.664062 L 123.222656 285.546875 L 123.105469 285.546875 L 123.105469 166.355469 L 111.441406 166.355469 L 187.519531 95.019531 L 264.894531 166.355469 L 252.800781 166.355469 L 252.800781 304.644531 L 337.867188 304.644531 L 337.867188 285.527344 L 271.367188 285.527344 Z M 271.367188 285.566406 " fill-opacity="1" fill-rule="nonzero"/></g></svg>